<svg xmlns="http://www.w3.org/2000/svg" xmlns:xlink="http://www.w3.org/1999/xlink" class="httpgd" width="1196.80" height="780.80" viewBox="0 0 1196.80 780.80">
<defs>
  <style type='text/css'><![CDATA[
    .httpgd line, .httpgd polyline, .httpgd polygon, .httpgd path, .httpgd rect, .httpgd circle {
      fill: none;
      stroke: #000000;
      stroke-linecap: round;
      stroke-linejoin: round;
      stroke-miterlimit: 10.00;
    }
  ]]></style>
<clipPath id="c0"><rect x="0.00" y="0.00" width="1196.80" height="780.80"/></clipPath>
<clipPath id="c1"><rect x="0.00" y="0.00" width="598.40" height="390.40"/></clipPath>
<clipPath id="c2"><rect x="0.00" y="0.00" width="1196.80" height="780.80"/></clipPath>
<clipPath id="c3"><rect x="43.89" y="25.44" width="548.53" height="330.38"/></clipPath>
<clipPath id="c4"><rect x="0.00" y="0.00" width="1196.80" height="780.80"/></clipPath>
<clipPath id="c5"><rect x="598.40" y="0.00" width="598.40" height="390.40"/></clipPath>
<clipPath id="c6"><rect x="0.00" y="0.00" width="1196.80" height="780.80"/></clipPath>
<clipPath id="c7"><rect x="648.39" y="25.44" width="542.44" height="330.38"/></clipPath>
<clipPath id="c8"><rect x="0.00" y="0.00" width="1196.80" height="780.80"/></clipPath>
<clipPath id="c9"><rect x="0.00" y="390.40" width="598.40" height="390.40"/></clipPath>
<clipPath id="c10"><rect x="0.00" y="0.00" width="1196.80" height="780.80"/></clipPath>
<clipPath id="c11"><rect x="49.99" y="415.84" width="542.44" height="330.38"/></clipPath>
<clipPath id="c12"><rect x="0.00" y="0.00" width="1196.80" height="780.80"/></clipPath>
<clipPath id="c13"><rect x="598.40" y="390.40" width="598.40" height="390.40"/></clipPath>
<clipPath id="c14"><rect x="0.00" y="0.00" width="1196.80" height="780.80"/></clipPath>
<clipPath id="c15"><rect x="648.39" y="415.84" width="542.44" height="330.38"/></clipPath>
<clipPath id="c16"><rect x="0.00" y="0.00" width="1196.80" height="780.80"/></clipPath>
</defs>
<rect width="100%" height="100%" style="stroke: none;fill: #FFFFFF;"/>
<g clip-path="url(#c0)">
</g><g clip-path="url(#c1)">
<rect x="0.00" y="-0.00" width="598.40" height="390.40" style="stroke-width: 1.16;stroke: #FFFFFF;fill: #FFFFFF;"/>
</g><g clip-path="url(#c3)">
<rect x="43.89" y="25.44" width="548.53" height="330.38" style="stroke-width: 1.16;stroke: none;fill: #FFFFFF;"/>
<polyline points="43.89,297.40 592.42,297.40" style="stroke-width: 0.29;stroke: #DEDEDE;stroke-linecap: butt;"/>
<polyline points="43.89,210.60 592.42,210.60" style="stroke-width: 0.29;stroke: #DEDEDE;stroke-linecap: butt;"/>
<polyline points="43.89,123.79 592.42,123.79" style="stroke-width: 0.29;stroke: #DEDEDE;stroke-linecap: butt;"/>
<polyline points="43.89,36.99 592.42,36.99" style="stroke-width: 0.29;stroke: #DEDEDE;stroke-linecap: butt;"/>
<polyline points="118.69,355.82 118.69,25.44" style="stroke-width: 0.29;stroke: #DEDEDE;stroke-linecap: butt;"/>
<polyline points="218.42,355.82 218.42,25.44" style="stroke-width: 0.29;stroke: #DEDEDE;stroke-linecap: butt;"/>
<polyline points="318.16,355.82 318.16,25.44" style="stroke-width: 0.29;stroke: #DEDEDE;stroke-linecap: butt;"/>
<polyline points="417.89,355.82 417.89,25.44" style="stroke-width: 0.29;stroke: #DEDEDE;stroke-linecap: butt;"/>
<polyline points="517.62,355.82 517.62,25.44" style="stroke-width: 0.29;stroke: #DEDEDE;stroke-linecap: butt;"/>
<polyline points="43.89,340.80 592.42,340.80" style="stroke-width: 0.58;stroke: #DEDEDE;stroke-linecap: butt;"/>
<polyline points="43.89,254.00 592.42,254.00" style="stroke-width: 0.58;stroke: #DEDEDE;stroke-linecap: butt;"/>
<polyline points="43.89,167.19 592.42,167.19" style="stroke-width: 0.58;stroke: #DEDEDE;stroke-linecap: butt;"/>
<polyline points="43.89,80.39 592.42,80.39" style="stroke-width: 0.58;stroke: #DEDEDE;stroke-linecap: butt;"/>
<polyline points="68.82,355.82 68.82,25.44" style="stroke-width: 0.58;stroke: #DEDEDE;stroke-linecap: butt;"/>
<polyline points="168.55,355.82 168.55,25.44" style="stroke-width: 0.58;stroke: #DEDEDE;stroke-linecap: butt;"/>
<polyline points="268.29,355.82 268.29,25.44" style="stroke-width: 0.58;stroke: #DEDEDE;stroke-linecap: butt;"/>
<polyline points="368.02,355.82 368.02,25.44" style="stroke-width: 0.58;stroke: #DEDEDE;stroke-linecap: butt;"/>
<polyline points="467.76,355.82 467.76,25.44" style="stroke-width: 0.58;stroke: #DEDEDE;stroke-linecap: butt;"/>
<polyline points="567.49,355.82 567.49,25.44" style="stroke-width: 0.58;stroke: #DEDEDE;stroke-linecap: butt;"/>
<rect x="392.96" y="25.44" width="99.73" height="330.38" style="stroke-width: 1.07;stroke: #BEBEBE;stroke-linecap: butt;stroke-linejoin: miter;fill: #D3D3D3;fill-opacity: 0.20;"/>
<rect x="392.96" y="25.44" width="99.73" height="330.38" style="stroke-width: 1.07;stroke: #BEBEBE;stroke-linecap: butt;stroke-linejoin: miter;fill: #D3D3D3;fill-opacity: 0.20;"/>
<rect x="392.96" y="25.44" width="99.73" height="330.38" style="stroke-width: 1.07;stroke: #BEBEBE;stroke-linecap: butt;stroke-linejoin: miter;fill: #D3D3D3;fill-opacity: 0.20;"/>
<rect x="392.96" y="25.44" width="99.73" height="330.38" style="stroke-width: 1.07;stroke: #BEBEBE;stroke-linecap: butt;stroke-linejoin: miter;fill: #D3D3D3;fill-opacity: 0.20;"/>
<rect x="392.96" y="25.44" width="99.73" height="330.38" style="stroke-width: 1.07;stroke: #BEBEBE;stroke-linecap: butt;stroke-linejoin: miter;fill: #D3D3D3;fill-opacity: 0.20;"/>
<rect x="392.96" y="25.44" width="99.73" height="330.38" style="stroke-width: 1.07;stroke: #BEBEBE;stroke-linecap: butt;stroke-linejoin: miter;fill: #D3D3D3;fill-opacity: 0.20;"/>
<polyline points="318.16,286.99 368.02,304.35 417.89,340.80 467.76,290.46 517.62,40.46 567.49,321.71" style="stroke-width: 1.07;stroke: #F8766D; stroke-dasharray: 5.69, 5.69;stroke-linecap: butt;"/>
<circle cx="318.16" cy="286.99" r="3.56" style="stroke-width: 0.71;stroke: #F8766D;fill: #F8766D;"/>
<circle cx="368.02" cy="304.35" r="3.56" style="stroke-width: 0.71;stroke: #F8766D;fill: #F8766D;"/>
<circle cx="417.89" cy="340.80" r="3.56" style="stroke-width: 0.71;stroke: #F8766D;fill: #F8766D;"/>
<circle cx="467.76" cy="290.46" r="3.56" style="stroke-width: 0.71;stroke: #F8766D;fill: #F8766D;"/>
<circle cx="517.62" cy="40.46" r="3.56" style="stroke-width: 0.71;stroke: #F8766D;fill: #F8766D;"/>
<circle cx="567.49" cy="321.71" r="3.56" style="stroke-width: 0.71;stroke: #F8766D;fill: #F8766D;"/>
<rect x="43.89" y="25.44" width="548.53" height="330.38" style="stroke-width: 1.16;stroke: #B3B3B3;"/>
</g><g clip-path="url(#c4)">
<g><text x="38.51" y="344.30" text-anchor="end" style="font-family: Arimo;font-size: 9.60px;fill: #4D4D4D;" textLength="6.10px" lengthAdjust="spacingAndGlyphs">0</text></g>
<g><text x="38.51" y="257.49" text-anchor="end" style="font-family: Arimo;font-size: 9.60px;fill: #4D4D4D;" textLength="12.20px" lengthAdjust="spacingAndGlyphs">50</text></g>
<g><text x="38.51" y="170.69" text-anchor="end" style="font-family: Arimo;font-size: 9.60px;fill: #4D4D4D;" textLength="18.30px" lengthAdjust="spacingAndGlyphs">100</text></g>
<g><text x="38.51" y="83.88" text-anchor="end" style="font-family: Arimo;font-size: 9.60px;fill: #4D4D4D;" textLength="18.30px" lengthAdjust="spacingAndGlyphs">150</text></g>
<polyline points="40.90,340.80 43.89,340.80" style="stroke-width: 0.58;stroke: #B3B3B3;stroke-linecap: butt;"/>
<polyline points="40.90,254.00 43.89,254.00" style="stroke-width: 0.58;stroke: #B3B3B3;stroke-linecap: butt;"/>
<polyline points="40.90,167.19 43.89,167.19" style="stroke-width: 0.58;stroke: #B3B3B3;stroke-linecap: butt;"/>
<polyline points="40.90,80.39 43.89,80.39" style="stroke-width: 0.58;stroke: #B3B3B3;stroke-linecap: butt;"/>
<polyline points="68.82,358.81 68.82,355.82" style="stroke-width: 0.58;stroke: #B3B3B3;stroke-linecap: butt;"/>
<polyline points="168.55,358.81 168.55,355.82" style="stroke-width: 0.58;stroke: #B3B3B3;stroke-linecap: butt;"/>
<polyline points="268.29,358.81 268.29,355.82" style="stroke-width: 0.58;stroke: #B3B3B3;stroke-linecap: butt;"/>
<polyline points="368.02,358.81 368.02,355.82" style="stroke-width: 0.58;stroke: #B3B3B3;stroke-linecap: butt;"/>
<polyline points="467.76,358.81 467.76,355.82" style="stroke-width: 0.58;stroke: #B3B3B3;stroke-linecap: butt;"/>
<polyline points="567.49,358.81 567.49,355.82" style="stroke-width: 0.58;stroke: #B3B3B3;stroke-linecap: butt;"/>
<g><text x="68.82" y="368.19" text-anchor="middle" style="font-family: Arimo;font-size: 9.60px;fill: #4D4D4D;" textLength="24.39px" lengthAdjust="spacingAndGlyphs">2010</text></g>
<g><text x="168.55" y="368.19" text-anchor="middle" style="font-family: Arimo;font-size: 9.60px;fill: #4D4D4D;" textLength="24.39px" lengthAdjust="spacingAndGlyphs">2012</text></g>
<g><text x="268.29" y="368.19" text-anchor="middle" style="font-family: Arimo;font-size: 9.60px;fill: #4D4D4D;" textLength="24.39px" lengthAdjust="spacingAndGlyphs">2014</text></g>
<g><text x="368.02" y="368.19" text-anchor="middle" style="font-family: Arimo;font-size: 9.60px;fill: #4D4D4D;" textLength="24.39px" lengthAdjust="spacingAndGlyphs">2016</text></g>
<g><text x="467.76" y="368.19" text-anchor="middle" style="font-family: Arimo;font-size: 9.60px;fill: #4D4D4D;" textLength="24.39px" lengthAdjust="spacingAndGlyphs">2018</text></g>
<g><text x="567.49" y="368.19" text-anchor="middle" style="font-family: Arimo;font-size: 9.60px;fill: #4D4D4D;" textLength="24.39px" lengthAdjust="spacingAndGlyphs">2020</text></g>
<g><text x="318.16" y="381.92" text-anchor="middle" style="font-family: Arimo;font-size: 12.00px;" textLength="60.63px" lengthAdjust="spacingAndGlyphs">Submit FY</text></g>
<g><text transform="translate(14.73,190.63) rotate(-90.00)" text-anchor="middle" style="font-family: Arimo;font-size: 12.00px;" textLength="103.95px" lengthAdjust="spacingAndGlyphs">Rezonings [units]</text></g>
<g><text x="43.89" y="16.47" style="font-family: Arimo;font-size: 14.40px;" textLength="132.71px" lengthAdjust="spacingAndGlyphs">Goochland County</text></g>
</g><g clip-path="url(#c5)">
<rect x="598.40" y="-0.00" width="598.40" height="390.40" style="stroke-width: 1.16;stroke: #FFFFFF;fill: #FFFFFF;"/>
</g><g clip-path="url(#c7)">
<rect x="648.39" y="25.44" width="542.44" height="330.38" style="stroke-width: 1.16;stroke: none;fill: #FFFFFF;"/>
<polyline points="648.39,282.82 1190.82,282.82" style="stroke-width: 0.29;stroke: #DEDEDE;stroke-linecap: butt;"/>
<polyline points="648.39,166.86 1190.82,166.86" style="stroke-width: 0.29;stroke: #DEDEDE;stroke-linecap: butt;"/>
<polyline points="648.39,50.89 1190.82,50.89" style="stroke-width: 0.29;stroke: #DEDEDE;stroke-linecap: butt;"/>
<polyline points="722.35,355.82 722.35,25.44" style="stroke-width: 0.29;stroke: #DEDEDE;stroke-linecap: butt;"/>
<polyline points="820.98,355.82 820.98,25.44" style="stroke-width: 0.29;stroke: #DEDEDE;stroke-linecap: butt;"/>
<polyline points="919.60,355.82 919.60,25.44" style="stroke-width: 0.29;stroke: #DEDEDE;stroke-linecap: butt;"/>
<polyline points="1018.23,355.82 1018.23,25.44" style="stroke-width: 0.29;stroke: #DEDEDE;stroke-linecap: butt;"/>
<polyline points="1116.85,355.82 1116.85,25.44" style="stroke-width: 0.29;stroke: #DEDEDE;stroke-linecap: butt;"/>
<polyline points="648.39,340.80 1190.82,340.80" style="stroke-width: 0.58;stroke: #DEDEDE;stroke-linecap: butt;"/>
<polyline points="648.39,224.84 1190.82,224.84" style="stroke-width: 0.58;stroke: #DEDEDE;stroke-linecap: butt;"/>
<polyline points="648.39,108.88 1190.82,108.88" style="stroke-width: 0.58;stroke: #DEDEDE;stroke-linecap: butt;"/>
<polyline points="673.04,355.82 673.04,25.44" style="stroke-width: 0.58;stroke: #DEDEDE;stroke-linecap: butt;"/>
<polyline points="771.67,355.82 771.67,25.44" style="stroke-width: 0.58;stroke: #DEDEDE;stroke-linecap: butt;"/>
<polyline points="870.29,355.82 870.29,25.44" style="stroke-width: 0.58;stroke: #DEDEDE;stroke-linecap: butt;"/>
<polyline points="968.92,355.82 968.92,25.44" style="stroke-width: 0.58;stroke: #DEDEDE;stroke-linecap: butt;"/>
<polyline points="1067.54,355.82 1067.54,25.44" style="stroke-width: 0.58;stroke: #DEDEDE;stroke-linecap: butt;"/>
<polyline points="1166.17,355.82 1166.17,25.44" style="stroke-width: 0.58;stroke: #DEDEDE;stroke-linecap: butt;"/>
<rect x="993.57" y="25.44" width="98.62" height="330.38" style="stroke-width: 1.07;stroke: #BEBEBE;stroke-linecap: butt;stroke-linejoin: miter;fill: #D3D3D3;fill-opacity: 0.20;"/>
<rect x="993.57" y="25.44" width="98.62" height="330.38" style="stroke-width: 1.07;stroke: #BEBEBE;stroke-linecap: butt;stroke-linejoin: miter;fill: #D3D3D3;fill-opacity: 0.20;"/>
<rect x="993.57" y="25.44" width="98.62" height="330.38" style="stroke-width: 1.07;stroke: #BEBEBE;stroke-linecap: butt;stroke-linejoin: miter;fill: #D3D3D3;fill-opacity: 0.20;"/>
<rect x="993.57" y="25.44" width="98.62" height="330.38" style="stroke-width: 1.07;stroke: #BEBEBE;stroke-linecap: butt;stroke-linejoin: miter;fill: #D3D3D3;fill-opacity: 0.20;"/>
<rect x="993.57" y="25.44" width="98.62" height="330.38" style="stroke-width: 1.07;stroke: #BEBEBE;stroke-linecap: butt;stroke-linejoin: miter;fill: #D3D3D3;fill-opacity: 0.20;"/>
<rect x="993.57" y="25.44" width="98.62" height="330.38" style="stroke-width: 1.07;stroke: #BEBEBE;stroke-linecap: butt;stroke-linejoin: miter;fill: #D3D3D3;fill-opacity: 0.20;"/>
<rect x="993.57" y="25.44" width="98.62" height="330.38" style="stroke-width: 1.07;stroke: #BEBEBE;stroke-linecap: butt;stroke-linejoin: miter;fill: #D3D3D3;fill-opacity: 0.20;"/>
<rect x="993.57" y="25.44" width="98.62" height="330.38" style="stroke-width: 1.07;stroke: #BEBEBE;stroke-linecap: butt;stroke-linejoin: miter;fill: #D3D3D3;fill-opacity: 0.20;"/>
<rect x="993.57" y="25.44" width="98.62" height="330.38" style="stroke-width: 1.07;stroke: #BEBEBE;stroke-linecap: butt;stroke-linejoin: miter;fill: #D3D3D3;fill-opacity: 0.20;"/>
<rect x="993.57" y="25.44" width="98.62" height="330.38" style="stroke-width: 1.07;stroke: #BEBEBE;stroke-linecap: butt;stroke-linejoin: miter;fill: #D3D3D3;fill-opacity: 0.20;"/>
<rect x="993.57" y="25.44" width="98.62" height="330.38" style="stroke-width: 1.07;stroke: #BEBEBE;stroke-linecap: butt;stroke-linejoin: miter;fill: #D3D3D3;fill-opacity: 0.20;"/>
<polyline points="673.04,340.80 722.35,336.86 771.67,329.21 820.98,237.36 870.29,267.52 919.60,326.19 968.92,40.46 1018.23,340.80 1067.54,278.42 1116.85,103.77 1166.17,274.94" style="stroke-width: 1.07;stroke: #F8766D; stroke-dasharray: 5.69, 5.69;stroke-linecap: butt;"/>
<circle cx="673.04" cy="340.80" r="3.56" style="stroke-width: 0.71;stroke: #F8766D;fill: #F8766D;"/>
<circle cx="722.35" cy="336.86" r="3.56" style="stroke-width: 0.71;stroke: #F8766D;fill: #F8766D;"/>
<circle cx="771.67" cy="329.21" r="3.56" style="stroke-width: 0.71;stroke: #F8766D;fill: #F8766D;"/>
<circle cx="820.98" cy="237.36" r="3.56" style="stroke-width: 0.71;stroke: #F8766D;fill: #F8766D;"/>
<circle cx="870.29" cy="267.52" r="3.56" style="stroke-width: 0.71;stroke: #F8766D;fill: #F8766D;"/>
<circle cx="919.60" cy="326.19" r="3.56" style="stroke-width: 0.71;stroke: #F8766D;fill: #F8766D;"/>
<circle cx="968.92" cy="40.46" r="3.56" style="stroke-width: 0.71;stroke: #F8766D;fill: #F8766D;"/>
<circle cx="1018.23" cy="340.80" r="3.56" style="stroke-width: 0.71;stroke: #F8766D;fill: #F8766D;"/>
<circle cx="1067.54" cy="278.42" r="3.56" style="stroke-width: 0.71;stroke: #F8766D;fill: #F8766D;"/>
<circle cx="1116.85" cy="103.77" r="3.56" style="stroke-width: 0.71;stroke: #F8766D;fill: #F8766D;"/>
<circle cx="1166.17" cy="274.94" r="3.56" style="stroke-width: 0.71;stroke: #F8766D;fill: #F8766D;"/>
<rect x="648.39" y="25.44" width="542.44" height="330.38" style="stroke-width: 1.16;stroke: #B3B3B3;"/>
</g><g clip-path="url(#c8)">
<g><text x="643.01" y="344.30" text-anchor="end" style="font-family: Arimo;font-size: 9.60px;fill: #4D4D4D;" textLength="6.10px" lengthAdjust="spacingAndGlyphs">0</text></g>
<g><text x="643.01" y="228.34" text-anchor="end" style="font-family: Arimo;font-size: 9.60px;fill: #4D4D4D;" textLength="18.30px" lengthAdjust="spacingAndGlyphs">500</text></g>
<g><text x="643.01" y="112.37" text-anchor="end" style="font-family: Arimo;font-size: 9.60px;fill: #4D4D4D;" textLength="24.39px" lengthAdjust="spacingAndGlyphs">1000</text></g>
<polyline points="645.40,340.80 648.39,340.80" style="stroke-width: 0.58;stroke: #B3B3B3;stroke-linecap: butt;"/>
<polyline points="645.40,224.84 648.39,224.84" style="stroke-width: 0.58;stroke: #B3B3B3;stroke-linecap: butt;"/>
<polyline points="645.40,108.88 648.39,108.88" style="stroke-width: 0.58;stroke: #B3B3B3;stroke-linecap: butt;"/>
<polyline points="673.04,358.81 673.04,355.82" style="stroke-width: 0.58;stroke: #B3B3B3;stroke-linecap: butt;"/>
<polyline points="771.67,358.81 771.67,355.82" style="stroke-width: 0.58;stroke: #B3B3B3;stroke-linecap: butt;"/>
<polyline points="870.29,358.81 870.29,355.82" style="stroke-width: 0.58;stroke: #B3B3B3;stroke-linecap: butt;"/>
<polyline points="968.92,358.81 968.92,355.82" style="stroke-width: 0.58;stroke: #B3B3B3;stroke-linecap: butt;"/>
<polyline points="1067.54,358.81 1067.54,355.82" style="stroke-width: 0.58;stroke: #B3B3B3;stroke-linecap: butt;"/>
<polyline points="1166.17,358.81 1166.17,355.82" style="stroke-width: 0.58;stroke: #B3B3B3;stroke-linecap: butt;"/>
<g><text x="673.04" y="368.19" text-anchor="middle" style="font-family: Arimo;font-size: 9.60px;fill: #4D4D4D;" textLength="24.39px" lengthAdjust="spacingAndGlyphs">2010</text></g>
<g><text x="771.67" y="368.19" text-anchor="middle" style="font-family: Arimo;font-size: 9.60px;fill: #4D4D4D;" textLength="24.39px" lengthAdjust="spacingAndGlyphs">2012</text></g>
<g><text x="870.29" y="368.19" text-anchor="middle" style="font-family: Arimo;font-size: 9.60px;fill: #4D4D4D;" textLength="24.39px" lengthAdjust="spacingAndGlyphs">2014</text></g>
<g><text x="968.92" y="368.19" text-anchor="middle" style="font-family: Arimo;font-size: 9.60px;fill: #4D4D4D;" textLength="24.39px" lengthAdjust="spacingAndGlyphs">2016</text></g>
<g><text x="1067.54" y="368.19" text-anchor="middle" style="font-family: Arimo;font-size: 9.60px;fill: #4D4D4D;" textLength="24.39px" lengthAdjust="spacingAndGlyphs">2018</text></g>
<g><text x="1166.17" y="368.19" text-anchor="middle" style="font-family: Arimo;font-size: 9.60px;fill: #4D4D4D;" textLength="24.39px" lengthAdjust="spacingAndGlyphs">2020</text></g>
<g><text x="919.60" y="381.92" text-anchor="middle" style="font-family: Arimo;font-size: 12.00px;" textLength="60.63px" lengthAdjust="spacingAndGlyphs">Submit FY</text></g>
<g><text transform="translate(613.13,190.63) rotate(-90.00)" text-anchor="middle" style="font-family: Arimo;font-size: 12.00px;" textLength="103.95px" lengthAdjust="spacingAndGlyphs">Rezonings [units]</text></g>
<g><text x="648.39" y="16.47" style="font-family: Arimo;font-size: 14.40px;" textLength="157.38px" lengthAdjust="spacingAndGlyphs">Prince William County</text></g>
</g><g clip-path="url(#c9)">
<rect x="0.00" y="390.40" width="598.40" height="390.40" style="stroke-width: 1.16;stroke: #FFFFFF;fill: #FFFFFF;"/>
</g><g clip-path="url(#c11)">
<rect x="49.99" y="415.84" width="542.44" height="330.38" style="stroke-width: 1.16;stroke: none;fill: #FFFFFF;"/>
<polyline points="49.99,685.12 592.42,685.12" style="stroke-width: 0.29;stroke: #DEDEDE;stroke-linecap: butt;"/>
<polyline points="49.99,592.97 592.42,592.97" style="stroke-width: 0.29;stroke: #DEDEDE;stroke-linecap: butt;"/>
<polyline points="49.99,500.81 592.42,500.81" style="stroke-width: 0.29;stroke: #DEDEDE;stroke-linecap: butt;"/>
<polyline points="123.95,746.22 123.95,415.84" style="stroke-width: 0.29;stroke: #DEDEDE;stroke-linecap: butt;"/>
<polyline points="222.58,746.22 222.58,415.84" style="stroke-width: 0.29;stroke: #DEDEDE;stroke-linecap: butt;"/>
<polyline points="321.20,746.22 321.20,415.84" style="stroke-width: 0.29;stroke: #DEDEDE;stroke-linecap: butt;"/>
<polyline points="419.83,746.22 419.83,415.84" style="stroke-width: 0.29;stroke: #DEDEDE;stroke-linecap: butt;"/>
<polyline points="518.45,746.22 518.45,415.84" style="stroke-width: 0.29;stroke: #DEDEDE;stroke-linecap: butt;"/>
<polyline points="49.99,731.20 592.42,731.20" style="stroke-width: 0.58;stroke: #DEDEDE;stroke-linecap: butt;"/>
<polyline points="49.99,639.05 592.42,639.05" style="stroke-width: 0.58;stroke: #DEDEDE;stroke-linecap: butt;"/>
<polyline points="49.99,546.89 592.42,546.89" style="stroke-width: 0.58;stroke: #DEDEDE;stroke-linecap: butt;"/>
<polyline points="49.99,454.73 592.42,454.73" style="stroke-width: 0.58;stroke: #DEDEDE;stroke-linecap: butt;"/>
<polyline points="74.64,746.22 74.64,415.84" style="stroke-width: 0.58;stroke: #DEDEDE;stroke-linecap: butt;"/>
<polyline points="173.27,746.22 173.27,415.84" style="stroke-width: 0.58;stroke: #DEDEDE;stroke-linecap: butt;"/>
<polyline points="271.89,746.22 271.89,415.84" style="stroke-width: 0.58;stroke: #DEDEDE;stroke-linecap: butt;"/>
<polyline points="370.52,746.22 370.52,415.84" style="stroke-width: 0.58;stroke: #DEDEDE;stroke-linecap: butt;"/>
<polyline points="469.14,746.22 469.14,415.84" style="stroke-width: 0.58;stroke: #DEDEDE;stroke-linecap: butt;"/>
<polyline points="567.77,746.22 567.77,415.84" style="stroke-width: 0.58;stroke: #DEDEDE;stroke-linecap: butt;"/>
<rect x="395.17" y="415.84" width="98.62" height="330.38" style="stroke-width: 1.07;stroke: #BEBEBE;stroke-linecap: butt;stroke-linejoin: miter;fill: #D3D3D3;fill-opacity: 0.20;"/>
<rect x="395.17" y="415.84" width="98.62" height="330.38" style="stroke-width: 1.07;stroke: #BEBEBE;stroke-linecap: butt;stroke-linejoin: miter;fill: #D3D3D3;fill-opacity: 0.20;"/>
<rect x="395.17" y="415.84" width="98.62" height="330.38" style="stroke-width: 1.07;stroke: #BEBEBE;stroke-linecap: butt;stroke-linejoin: miter;fill: #D3D3D3;fill-opacity: 0.20;"/>
<rect x="395.17" y="415.84" width="98.62" height="330.38" style="stroke-width: 1.07;stroke: #BEBEBE;stroke-linecap: butt;stroke-linejoin: miter;fill: #D3D3D3;fill-opacity: 0.20;"/>
<rect x="395.17" y="415.84" width="98.62" height="330.38" style="stroke-width: 1.07;stroke: #BEBEBE;stroke-linecap: butt;stroke-linejoin: miter;fill: #D3D3D3;fill-opacity: 0.20;"/>
<rect x="395.17" y="415.84" width="98.62" height="330.38" style="stroke-width: 1.07;stroke: #BEBEBE;stroke-linecap: butt;stroke-linejoin: miter;fill: #D3D3D3;fill-opacity: 0.20;"/>
<rect x="395.17" y="415.84" width="98.62" height="330.38" style="stroke-width: 1.07;stroke: #BEBEBE;stroke-linecap: butt;stroke-linejoin: miter;fill: #D3D3D3;fill-opacity: 0.20;"/>
<rect x="395.17" y="415.84" width="98.62" height="330.38" style="stroke-width: 1.07;stroke: #BEBEBE;stroke-linecap: butt;stroke-linejoin: miter;fill: #D3D3D3;fill-opacity: 0.20;"/>
<rect x="395.17" y="415.84" width="98.62" height="330.38" style="stroke-width: 1.07;stroke: #BEBEBE;stroke-linecap: butt;stroke-linejoin: miter;fill: #D3D3D3;fill-opacity: 0.20;"/>
<rect x="395.17" y="415.84" width="98.62" height="330.38" style="stroke-width: 1.07;stroke: #BEBEBE;stroke-linecap: butt;stroke-linejoin: miter;fill: #D3D3D3;fill-opacity: 0.20;"/>
<rect x="395.17" y="415.84" width="98.62" height="330.38" style="stroke-width: 1.07;stroke: #BEBEBE;stroke-linecap: butt;stroke-linejoin: miter;fill: #D3D3D3;fill-opacity: 0.20;"/>
<polyline points="74.64,731.20 123.95,731.20 173.27,430.86 222.58,644.48 271.89,660.79 321.20,719.78 370.52,593.61 419.83,731.20 469.14,643.10 518.45,523.11 567.77,612.78" style="stroke-width: 1.07;stroke: #F8766D; stroke-dasharray: 5.69, 5.69;stroke-linecap: butt;"/>
<circle cx="74.64" cy="731.20" r="3.56" style="stroke-width: 0.71;stroke: #F8766D;fill: #F8766D;"/>
<circle cx="123.95" cy="731.20" r="3.56" style="stroke-width: 0.71;stroke: #F8766D;fill: #F8766D;"/>
<circle cx="173.27" cy="430.86" r="3.56" style="stroke-width: 0.71;stroke: #F8766D;fill: #F8766D;"/>
<circle cx="222.58" cy="644.48" r="3.56" style="stroke-width: 0.71;stroke: #F8766D;fill: #F8766D;"/>
<circle cx="271.89" cy="660.79" r="3.56" style="stroke-width: 0.71;stroke: #F8766D;fill: #F8766D;"/>
<circle cx="321.20" cy="719.78" r="3.56" style="stroke-width: 0.71;stroke: #F8766D;fill: #F8766D;"/>
<circle cx="370.52" cy="593.61" r="3.56" style="stroke-width: 0.71;stroke: #F8766D;fill: #F8766D;"/>
<circle cx="419.83" cy="731.20" r="3.56" style="stroke-width: 0.71;stroke: #F8766D;fill: #F8766D;"/>
<circle cx="469.14" cy="643.10" r="3.56" style="stroke-width: 0.71;stroke: #F8766D;fill: #F8766D;"/>
<circle cx="518.45" cy="523.11" r="3.56" style="stroke-width: 0.71;stroke: #F8766D;fill: #F8766D;"/>
<circle cx="567.77" cy="612.78" r="3.56" style="stroke-width: 0.71;stroke: #F8766D;fill: #F8766D;"/>
<rect x="49.99" y="415.84" width="542.44" height="330.38" style="stroke-width: 1.16;stroke: #B3B3B3;"/>
</g><g clip-path="url(#c12)">
<g><text x="44.61" y="734.70" text-anchor="end" style="font-family: Arimo;font-size: 9.60px;fill: #4D4D4D;" textLength="6.10px" lengthAdjust="spacingAndGlyphs">0</text></g>
<g><text x="44.61" y="642.54" text-anchor="end" style="font-family: Arimo;font-size: 9.60px;fill: #4D4D4D;" textLength="24.39px" lengthAdjust="spacingAndGlyphs">1000</text></g>
<g><text x="44.61" y="550.38" text-anchor="end" style="font-family: Arimo;font-size: 9.60px;fill: #4D4D4D;" textLength="24.39px" lengthAdjust="spacingAndGlyphs">2000</text></g>
<g><text x="44.61" y="458.22" text-anchor="end" style="font-family: Arimo;font-size: 9.60px;fill: #4D4D4D;" textLength="24.39px" lengthAdjust="spacingAndGlyphs">3000</text></g>
<polyline points="47.00,731.20 49.99,731.20" style="stroke-width: 0.58;stroke: #B3B3B3;stroke-linecap: butt;"/>
<polyline points="47.00,639.05 49.99,639.05" style="stroke-width: 0.58;stroke: #B3B3B3;stroke-linecap: butt;"/>
<polyline points="47.00,546.89 49.99,546.89" style="stroke-width: 0.58;stroke: #B3B3B3;stroke-linecap: butt;"/>
<polyline points="47.00,454.73 49.99,454.73" style="stroke-width: 0.58;stroke: #B3B3B3;stroke-linecap: butt;"/>
<polyline points="74.64,749.21 74.64,746.22" style="stroke-width: 0.58;stroke: #B3B3B3;stroke-linecap: butt;"/>
<polyline points="173.27,749.21 173.27,746.22" style="stroke-width: 0.58;stroke: #B3B3B3;stroke-linecap: butt;"/>
<polyline points="271.89,749.21 271.89,746.22" style="stroke-width: 0.58;stroke: #B3B3B3;stroke-linecap: butt;"/>
<polyline points="370.52,749.21 370.52,746.22" style="stroke-width: 0.58;stroke: #B3B3B3;stroke-linecap: butt;"/>
<polyline points="469.14,749.21 469.14,746.22" style="stroke-width: 0.58;stroke: #B3B3B3;stroke-linecap: butt;"/>
<polyline points="567.77,749.21 567.77,746.22" style="stroke-width: 0.58;stroke: #B3B3B3;stroke-linecap: butt;"/>
<g><text x="74.64" y="758.59" text-anchor="middle" style="font-family: Arimo;font-size: 9.60px;fill: #4D4D4D;" textLength="24.39px" lengthAdjust="spacingAndGlyphs">2010</text></g>
<g><text x="173.27" y="758.59" text-anchor="middle" style="font-family: Arimo;font-size: 9.60px;fill: #4D4D4D;" textLength="24.39px" lengthAdjust="spacingAndGlyphs">2012</text></g>
<g><text x="271.89" y="758.59" text-anchor="middle" style="font-family: Arimo;font-size: 9.60px;fill: #4D4D4D;" textLength="24.39px" lengthAdjust="spacingAndGlyphs">2014</text></g>
<g><text x="370.52" y="758.59" text-anchor="middle" style="font-family: Arimo;font-size: 9.60px;fill: #4D4D4D;" textLength="24.39px" lengthAdjust="spacingAndGlyphs">2016</text></g>
<g><text x="469.14" y="758.59" text-anchor="middle" style="font-family: Arimo;font-size: 9.60px;fill: #4D4D4D;" textLength="24.39px" lengthAdjust="spacingAndGlyphs">2018</text></g>
<g><text x="567.77" y="758.59" text-anchor="middle" style="font-family: Arimo;font-size: 9.60px;fill: #4D4D4D;" textLength="24.39px" lengthAdjust="spacingAndGlyphs">2020</text></g>
<g><text x="321.20" y="772.32" text-anchor="middle" style="font-family: Arimo;font-size: 12.00px;" textLength="60.63px" lengthAdjust="spacingAndGlyphs">Submit FY</text></g>
<g><text transform="translate(14.73,581.03) rotate(-90.00)" text-anchor="middle" style="font-family: Arimo;font-size: 12.00px;" textLength="103.95px" lengthAdjust="spacingAndGlyphs">Rezonings [units]</text></g>
<g><text x="49.99" y="406.87" style="font-family: Arimo;font-size: 14.40px;" textLength="117.72px" lengthAdjust="spacingAndGlyphs">Loudoun County</text></g>
</g><g clip-path="url(#c13)">
<rect x="598.40" y="390.40" width="598.40" height="390.40" style="stroke-width: 1.16;stroke: #FFFFFF;fill: #FFFFFF;"/>
</g><g clip-path="url(#c15)">
<rect x="648.39" y="415.84" width="542.44" height="330.38" style="stroke-width: 1.16;stroke: none;fill: #FFFFFF;"/>
<polyline points="648.39,719.14 1190.82,719.14" style="stroke-width: 0.29;stroke: #DEDEDE;stroke-linecap: butt;"/>
<polyline points="648.39,633.00 1190.82,633.00" style="stroke-width: 0.29;stroke: #DEDEDE;stroke-linecap: butt;"/>
<polyline points="648.39,546.86 1190.82,546.86" style="stroke-width: 0.29;stroke: #DEDEDE;stroke-linecap: butt;"/>
<polyline points="648.39,460.72 1190.82,460.72" style="stroke-width: 0.29;stroke: #DEDEDE;stroke-linecap: butt;"/>
<polyline points="722.35,746.22 722.35,415.84" style="stroke-width: 0.29;stroke: #DEDEDE;stroke-linecap: butt;"/>
<polyline points="820.98,746.22 820.98,415.84" style="stroke-width: 0.29;stroke: #DEDEDE;stroke-linecap: butt;"/>
<polyline points="919.60,746.22 919.60,415.84" style="stroke-width: 0.29;stroke: #DEDEDE;stroke-linecap: butt;"/>
<polyline points="1018.23,746.22 1018.23,415.84" style="stroke-width: 0.29;stroke: #DEDEDE;stroke-linecap: butt;"/>
<polyline points="1116.85,746.22 1116.85,415.84" style="stroke-width: 0.29;stroke: #DEDEDE;stroke-linecap: butt;"/>
<polyline points="648.39,676.07 1190.82,676.07" style="stroke-width: 0.58;stroke: #DEDEDE;stroke-linecap: butt;"/>
<polyline points="648.39,589.93 1190.82,589.93" style="stroke-width: 0.58;stroke: #DEDEDE;stroke-linecap: butt;"/>
<polyline points="648.39,503.79 1190.82,503.79" style="stroke-width: 0.58;stroke: #DEDEDE;stroke-linecap: butt;"/>
<polyline points="648.39,417.65 1190.82,417.65" style="stroke-width: 0.58;stroke: #DEDEDE;stroke-linecap: butt;"/>
<polyline points="673.04,746.22 673.04,415.84" style="stroke-width: 0.58;stroke: #DEDEDE;stroke-linecap: butt;"/>
<polyline points="771.67,746.22 771.67,415.84" style="stroke-width: 0.58;stroke: #DEDEDE;stroke-linecap: butt;"/>
<polyline points="870.29,746.22 870.29,415.84" style="stroke-width: 0.58;stroke: #DEDEDE;stroke-linecap: butt;"/>
<polyline points="968.92,746.22 968.92,415.84" style="stroke-width: 0.58;stroke: #DEDEDE;stroke-linecap: butt;"/>
<polyline points="1067.54,746.22 1067.54,415.84" style="stroke-width: 0.58;stroke: #DEDEDE;stroke-linecap: butt;"/>
<polyline points="1166.17,746.22 1166.17,415.84" style="stroke-width: 0.58;stroke: #DEDEDE;stroke-linecap: butt;"/>
<rect x="993.57" y="415.84" width="98.62" height="330.38" style="stroke-width: 1.07;stroke: #BEBEBE;stroke-linecap: butt;stroke-linejoin: miter;fill: #D3D3D3;fill-opacity: 0.20;"/>
<rect x="993.57" y="415.84" width="98.62" height="330.38" style="stroke-width: 1.07;stroke: #BEBEBE;stroke-linecap: butt;stroke-linejoin: miter;fill: #D3D3D3;fill-opacity: 0.20;"/>
<rect x="993.57" y="415.84" width="98.62" height="330.38" style="stroke-width: 1.07;stroke: #BEBEBE;stroke-linecap: butt;stroke-linejoin: miter;fill: #D3D3D3;fill-opacity: 0.20;"/>
<rect x="993.57" y="415.84" width="98.62" height="330.38" style="stroke-width: 1.07;stroke: #BEBEBE;stroke-linecap: butt;stroke-linejoin: miter;fill: #D3D3D3;fill-opacity: 0.20;"/>
<rect x="993.57" y="415.84" width="98.62" height="330.38" style="stroke-width: 1.07;stroke: #BEBEBE;stroke-linecap: butt;stroke-linejoin: miter;fill: #D3D3D3;fill-opacity: 0.20;"/>
<rect x="993.57" y="415.84" width="98.62" height="330.38" style="stroke-width: 1.07;stroke: #BEBEBE;stroke-linecap: butt;stroke-linejoin: miter;fill: #D3D3D3;fill-opacity: 0.20;"/>
<rect x="993.57" y="415.84" width="98.62" height="330.38" style="stroke-width: 1.07;stroke: #BEBEBE;stroke-linecap: butt;stroke-linejoin: miter;fill: #D3D3D3;fill-opacity: 0.20;"/>
<polyline points="870.29,712.83 919.60,649.66 968.92,430.86 1018.23,705.36 1067.54,694.45 1116.85,731.20 1166.17,730.63" style="stroke-width: 1.07;stroke: #F8766D; stroke-dasharray: 5.69, 5.69;stroke-linecap: butt;"/>
<circle cx="870.29" cy="712.83" r="3.56" style="stroke-width: 0.71;stroke: #F8766D;fill: #F8766D;"/>
<circle cx="919.60" cy="649.66" r="3.56" style="stroke-width: 0.71;stroke: #F8766D;fill: #F8766D;"/>
<circle cx="968.92" cy="430.86" r="3.56" style="stroke-width: 0.71;stroke: #F8766D;fill: #F8766D;"/>
<circle cx="1018.23" cy="705.36" r="3.56" style="stroke-width: 0.71;stroke: #F8766D;fill: #F8766D;"/>
<circle cx="1067.54" cy="694.45" r="3.56" style="stroke-width: 0.71;stroke: #F8766D;fill: #F8766D;"/>
<circle cx="1116.85" cy="731.20" r="3.56" style="stroke-width: 0.71;stroke: #F8766D;fill: #F8766D;"/>
<circle cx="1166.17" cy="730.63" r="3.56" style="stroke-width: 0.71;stroke: #F8766D;fill: #F8766D;"/>
<rect x="648.39" y="415.84" width="542.44" height="330.38" style="stroke-width: 1.16;stroke: #B3B3B3;"/>
</g><g clip-path="url(#c16)">
<g><text x="643.01" y="679.57" text-anchor="end" style="font-family: Arimo;font-size: 9.60px;fill: #4D4D4D;" textLength="18.30px" lengthAdjust="spacingAndGlyphs">300</text></g>
<g><text x="643.01" y="593.43" text-anchor="end" style="font-family: Arimo;font-size: 9.60px;fill: #4D4D4D;" textLength="18.30px" lengthAdjust="spacingAndGlyphs">600</text></g>
<g><text x="643.01" y="507.29" text-anchor="end" style="font-family: Arimo;font-size: 9.60px;fill: #4D4D4D;" textLength="18.30px" lengthAdjust="spacingAndGlyphs">900</text></g>
<g><text x="643.01" y="421.15" text-anchor="end" style="font-family: Arimo;font-size: 9.60px;fill: #4D4D4D;" textLength="24.39px" lengthAdjust="spacingAndGlyphs">1200</text></g>
<polyline points="645.40,676.07 648.39,676.07" style="stroke-width: 0.58;stroke: #B3B3B3;stroke-linecap: butt;"/>
<polyline points="645.40,589.93 648.39,589.93" style="stroke-width: 0.58;stroke: #B3B3B3;stroke-linecap: butt;"/>
<polyline points="645.40,503.79 648.39,503.79" style="stroke-width: 0.58;stroke: #B3B3B3;stroke-linecap: butt;"/>
<polyline points="645.40,417.65 648.39,417.65" style="stroke-width: 0.58;stroke: #B3B3B3;stroke-linecap: butt;"/>
<polyline points="673.04,749.21 673.04,746.22" style="stroke-width: 0.58;stroke: #B3B3B3;stroke-linecap: butt;"/>
<polyline points="771.67,749.21 771.67,746.22" style="stroke-width: 0.58;stroke: #B3B3B3;stroke-linecap: butt;"/>
<polyline points="870.29,749.21 870.29,746.22" style="stroke-width: 0.58;stroke: #B3B3B3;stroke-linecap: butt;"/>
<polyline points="968.92,749.21 968.92,746.22" style="stroke-width: 0.58;stroke: #B3B3B3;stroke-linecap: butt;"/>
<polyline points="1067.54,749.21 1067.54,746.22" style="stroke-width: 0.58;stroke: #B3B3B3;stroke-linecap: butt;"/>
<polyline points="1166.17,749.21 1166.17,746.22" style="stroke-width: 0.58;stroke: #B3B3B3;stroke-linecap: butt;"/>
<g><text x="673.04" y="758.59" text-anchor="middle" style="font-family: Arimo;font-size: 9.60px;fill: #4D4D4D;" textLength="24.39px" lengthAdjust="spacingAndGlyphs">2010</text></g>
<g><text x="771.67" y="758.59" text-anchor="middle" style="font-family: Arimo;font-size: 9.60px;fill: #4D4D4D;" textLength="24.39px" lengthAdjust="spacingAndGlyphs">2012</text></g>
<g><text x="870.29" y="758.59" text-anchor="middle" style="font-family: Arimo;font-size: 9.60px;fill: #4D4D4D;" textLength="24.39px" lengthAdjust="spacingAndGlyphs">2014</text></g>
<g><text x="968.92" y="758.59" text-anchor="middle" style="font-family: Arimo;font-size: 9.60px;fill: #4D4D4D;" textLength="24.39px" lengthAdjust="spacingAndGlyphs">2016</text></g>
<g><text x="1067.54" y="758.59" text-anchor="middle" style="font-family: Arimo;font-size: 9.60px;fill: #4D4D4D;" textLength="24.39px" lengthAdjust="spacingAndGlyphs">2018</text></g>
<g><text x="1166.17" y="758.59" text-anchor="middle" style="font-family: Arimo;font-size: 9.60px;fill: #4D4D4D;" textLength="24.39px" lengthAdjust="spacingAndGlyphs">2020</text></g>
<g><text x="919.60" y="772.32" text-anchor="middle" style="font-family: Arimo;font-size: 12.00px;" textLength="60.63px" lengthAdjust="spacingAndGlyphs">Submit FY</text></g>
<g><text transform="translate(613.13,581.03) rotate(-90.00)" text-anchor="middle" style="font-family: Arimo;font-size: 12.00px;" textLength="103.95px" lengthAdjust="spacingAndGlyphs">Rezonings [units]</text></g>
<g><text x="648.39" y="406.87" style="font-family: Arimo;font-size: 14.40px;" textLength="116.70px" lengthAdjust="spacingAndGlyphs">Hanover County</text></g>
</g>
</svg>