<svg xmlns="http://www.w3.org/2000/svg" xmlns:xlink="http://www.w3.org/1999/xlink" class="httpgd" width="796.00" height="582.00" viewBox="0 0 796.00 582.00">
<defs>
  <style type='text/css'><![CDATA[
    .httpgd line, .httpgd polyline, .httpgd polygon, .httpgd path, .httpgd rect, .httpgd circle {
      fill: none;
      stroke: #000000;
      stroke-linecap: round;
      stroke-linejoin: round;
      stroke-miterlimit: 10.00;
    }
  ]]></style>
<clipPath id="c0"><rect x="0.00" y="0.00" width="796.00" height="582.00"/></clipPath>
<clipPath id="c1"><rect x="0.00" y="0.00" width="796.00" height="194.00"/></clipPath>
<clipPath id="c2"><rect x="0.00" y="0.00" width="796.00" height="582.00"/></clipPath>
<clipPath id="c3"><rect x="41.47" y="25.28" width="748.55" height="134.37"/></clipPath>
<clipPath id="c4"><rect x="0.00" y="0.00" width="796.00" height="582.00"/></clipPath>
<clipPath id="c5"><rect x="0.00" y="194.00" width="796.00" height="194.00"/></clipPath>
<clipPath id="c6"><rect x="0.00" y="0.00" width="796.00" height="582.00"/></clipPath>
<clipPath id="c7"><rect x="46.80" y="219.28" width="743.22" height="134.37"/></clipPath>
<clipPath id="c8"><rect x="0.00" y="0.00" width="796.00" height="582.00"/></clipPath>
<clipPath id="c9"><rect x="0.00" y="388.00" width="796.00" height="194.00"/></clipPath>
<clipPath id="c10"><rect x="0.00" y="0.00" width="796.00" height="582.00"/></clipPath>
<clipPath id="c11"><rect x="46.80" y="413.28" width="743.22" height="134.37"/></clipPath>
<clipPath id="c12"><rect x="0.00" y="0.00" width="796.00" height="582.00"/></clipPath>
</defs>
<rect width="100%" height="100%" style="stroke: none;fill: #FFFFFF;"/>
<g clip-path="url(#c0)">
</g><g clip-path="url(#c1)">
<rect x="0.00" y="0.00" width="796.00" height="194.00" style="stroke-width: 1.16;stroke: #FFFFFF;fill: #FFFFFF;"/>
</g><g clip-path="url(#c3)">
<rect x="41.47" y="25.28" width="748.55" height="134.37" style="stroke-width: 1.16;stroke: none;fill: #FFFFFF;"/>
<polyline points="41.47,135.89 790.02,135.89" style="stroke-width: 0.29;stroke: #DEDEDE;stroke-linecap: butt;"/>
<polyline points="41.47,100.59 790.02,100.59" style="stroke-width: 0.29;stroke: #DEDEDE;stroke-linecap: butt;"/>
<polyline points="41.47,65.28 790.02,65.28" style="stroke-width: 0.29;stroke: #DEDEDE;stroke-linecap: butt;"/>
<polyline points="41.47,29.98 790.02,29.98" style="stroke-width: 0.29;stroke: #DEDEDE;stroke-linecap: butt;"/>
<polyline points="143.54,159.65 143.54,25.28" style="stroke-width: 0.29;stroke: #DEDEDE;stroke-linecap: butt;"/>
<polyline points="279.64,159.65 279.64,25.28" style="stroke-width: 0.29;stroke: #DEDEDE;stroke-linecap: butt;"/>
<polyline points="415.75,159.65 415.75,25.28" style="stroke-width: 0.29;stroke: #DEDEDE;stroke-linecap: butt;"/>
<polyline points="551.85,159.65 551.85,25.28" style="stroke-width: 0.29;stroke: #DEDEDE;stroke-linecap: butt;"/>
<polyline points="687.95,159.65 687.95,25.28" style="stroke-width: 0.29;stroke: #DEDEDE;stroke-linecap: butt;"/>
<polyline points="41.47,153.54 790.02,153.54" style="stroke-width: 0.58;stroke: #DEDEDE;stroke-linecap: butt;"/>
<polyline points="41.47,118.24 790.02,118.24" style="stroke-width: 0.58;stroke: #DEDEDE;stroke-linecap: butt;"/>
<polyline points="41.47,82.94 790.02,82.94" style="stroke-width: 0.58;stroke: #DEDEDE;stroke-linecap: butt;"/>
<polyline points="41.47,47.63 790.02,47.63" style="stroke-width: 0.58;stroke: #DEDEDE;stroke-linecap: butt;"/>
<polyline points="75.49,159.65 75.49,25.28" style="stroke-width: 0.58;stroke: #DEDEDE;stroke-linecap: butt;"/>
<polyline points="211.59,159.65 211.59,25.28" style="stroke-width: 0.58;stroke: #DEDEDE;stroke-linecap: butt;"/>
<polyline points="347.70,159.65 347.70,25.28" style="stroke-width: 0.58;stroke: #DEDEDE;stroke-linecap: butt;"/>
<polyline points="483.80,159.65 483.80,25.28" style="stroke-width: 0.58;stroke: #DEDEDE;stroke-linecap: butt;"/>
<polyline points="619.90,159.65 619.90,25.28" style="stroke-width: 0.58;stroke: #DEDEDE;stroke-linecap: butt;"/>
<polyline points="756.00,159.65 756.00,25.28" style="stroke-width: 0.58;stroke: #DEDEDE;stroke-linecap: butt;"/>
<rect x="517.82" y="25.28" width="136.10" height="134.37" style="stroke-width: 1.07;stroke: #BEBEBE;stroke-linecap: butt;stroke-linejoin: miter;fill: #D3D3D3;fill-opacity: 0.20;"/>
<rect x="517.82" y="25.28" width="136.10" height="134.37" style="stroke-width: 1.07;stroke: #BEBEBE;stroke-linecap: butt;stroke-linejoin: miter;fill: #D3D3D3;fill-opacity: 0.20;"/>
<rect x="517.82" y="25.28" width="136.10" height="134.37" style="stroke-width: 1.07;stroke: #BEBEBE;stroke-linecap: butt;stroke-linejoin: miter;fill: #D3D3D3;fill-opacity: 0.20;"/>
<rect x="517.82" y="25.28" width="136.10" height="134.37" style="stroke-width: 1.07;stroke: #BEBEBE;stroke-linecap: butt;stroke-linejoin: miter;fill: #D3D3D3;fill-opacity: 0.20;"/>
<rect x="517.82" y="25.28" width="136.10" height="134.37" style="stroke-width: 1.07;stroke: #BEBEBE;stroke-linecap: butt;stroke-linejoin: miter;fill: #D3D3D3;fill-opacity: 0.20;"/>
<rect x="517.82" y="25.28" width="136.10" height="134.37" style="stroke-width: 1.07;stroke: #BEBEBE;stroke-linecap: butt;stroke-linejoin: miter;fill: #D3D3D3;fill-opacity: 0.20;"/>
<polyline points="415.75,131.66 483.80,138.72 551.85,153.54 619.90,133.07 687.95,31.39 756.00,145.78" style="stroke-width: 1.07;stroke: #F8766D; stroke-dasharray: 5.69, 5.69;stroke-linecap: butt;"/>
<circle cx="415.75" cy="131.66" r="3.56" style="stroke-width: 0.71;stroke: #F8766D;fill: #F8766D;"/>
<circle cx="483.80" cy="138.72" r="3.56" style="stroke-width: 0.71;stroke: #F8766D;fill: #F8766D;"/>
<circle cx="551.85" cy="153.54" r="3.56" style="stroke-width: 0.71;stroke: #F8766D;fill: #F8766D;"/>
<circle cx="619.90" cy="133.07" r="3.56" style="stroke-width: 0.71;stroke: #F8766D;fill: #F8766D;"/>
<circle cx="687.95" cy="31.39" r="3.56" style="stroke-width: 0.71;stroke: #F8766D;fill: #F8766D;"/>
<circle cx="756.00" cy="145.78" r="3.56" style="stroke-width: 0.71;stroke: #F8766D;fill: #F8766D;"/>
<rect x="41.47" y="25.28" width="748.55" height="134.37" style="stroke-width: 1.16;stroke: #B3B3B3;"/>
</g><g clip-path="url(#c4)">
<g><text x="36.09" y="156.98" text-anchor="end" style="font-family: Arial;font-size: 9.60px;fill: #4D4D4D;" textLength="5.34px" lengthAdjust="spacingAndGlyphs">0</text></g>
<g><text x="36.09" y="121.67" text-anchor="end" style="font-family: Arial;font-size: 9.60px;fill: #4D4D4D;" textLength="10.67px" lengthAdjust="spacingAndGlyphs">50</text></g>
<g><text x="36.09" y="86.37" text-anchor="end" style="font-family: Arial;font-size: 9.60px;fill: #4D4D4D;" textLength="16.01px" lengthAdjust="spacingAndGlyphs">100</text></g>
<g><text x="36.09" y="51.06" text-anchor="end" style="font-family: Arial;font-size: 9.60px;fill: #4D4D4D;" textLength="16.01px" lengthAdjust="spacingAndGlyphs">150</text></g>
<polyline points="38.48,153.54 41.47,153.54" style="stroke-width: 0.58;stroke: #B3B3B3;stroke-linecap: butt;"/>
<polyline points="38.48,118.24 41.47,118.24" style="stroke-width: 0.58;stroke: #B3B3B3;stroke-linecap: butt;"/>
<polyline points="38.48,82.94 41.47,82.94" style="stroke-width: 0.58;stroke: #B3B3B3;stroke-linecap: butt;"/>
<polyline points="38.48,47.63 41.47,47.63" style="stroke-width: 0.58;stroke: #B3B3B3;stroke-linecap: butt;"/>
<polyline points="75.49,162.64 75.49,159.65" style="stroke-width: 0.58;stroke: #B3B3B3;stroke-linecap: butt;"/>
<polyline points="211.59,162.64 211.59,159.65" style="stroke-width: 0.58;stroke: #B3B3B3;stroke-linecap: butt;"/>
<polyline points="347.70,162.64 347.70,159.65" style="stroke-width: 0.58;stroke: #B3B3B3;stroke-linecap: butt;"/>
<polyline points="483.80,162.64 483.80,159.65" style="stroke-width: 0.58;stroke: #B3B3B3;stroke-linecap: butt;"/>
<polyline points="619.90,162.64 619.90,159.65" style="stroke-width: 0.58;stroke: #B3B3B3;stroke-linecap: butt;"/>
<polyline points="756.00,162.64 756.00,159.65" style="stroke-width: 0.58;stroke: #B3B3B3;stroke-linecap: butt;"/>
<g><text x="75.49" y="171.90" text-anchor="middle" style="font-family: Arial;font-size: 9.60px;fill: #4D4D4D;" textLength="21.34px" lengthAdjust="spacingAndGlyphs">2010</text></g>
<g><text x="211.59" y="171.90" text-anchor="middle" style="font-family: Arial;font-size: 9.60px;fill: #4D4D4D;" textLength="21.34px" lengthAdjust="spacingAndGlyphs">2012</text></g>
<g><text x="347.70" y="171.90" text-anchor="middle" style="font-family: Arial;font-size: 9.60px;fill: #4D4D4D;" textLength="21.34px" lengthAdjust="spacingAndGlyphs">2014</text></g>
<g><text x="483.80" y="171.90" text-anchor="middle" style="font-family: Arial;font-size: 9.60px;fill: #4D4D4D;" textLength="21.34px" lengthAdjust="spacingAndGlyphs">2016</text></g>
<g><text x="619.90" y="171.90" text-anchor="middle" style="font-family: Arial;font-size: 9.60px;fill: #4D4D4D;" textLength="21.34px" lengthAdjust="spacingAndGlyphs">2018</text></g>
<g><text x="756.00" y="171.90" text-anchor="middle" style="font-family: Arial;font-size: 9.60px;fill: #4D4D4D;" textLength="21.34px" lengthAdjust="spacingAndGlyphs">2020</text></g>
<g><text x="415.75" y="185.50" text-anchor="middle" style="font-family: Arial;font-size: 12.00px;" textLength="56.02px" lengthAdjust="spacingAndGlyphs">Submit FY</text></g>
<g><text transform="translate(14.57,92.47) rotate(-90.00)" text-anchor="middle" style="font-family: Arial;font-size: 12.00px;" textLength="92.07px" lengthAdjust="spacingAndGlyphs">Rezonings [units]</text></g>
<g><text x="41.47" y="16.28" style="font-family: Arial;font-size: 14.40px;" textLength="119.24px" lengthAdjust="spacingAndGlyphs">Goochland County</text></g>
</g><g clip-path="url(#c5)">
<rect x="-0.00" y="194.00" width="796.00" height="194.00" style="stroke-width: 1.16;stroke: #FFFFFF;fill: #FFFFFF;"/>
</g><g clip-path="url(#c7)">
<rect x="46.80" y="219.28" width="743.22" height="134.37" style="stroke-width: 1.16;stroke: none;fill: #FFFFFF;"/>
<polyline points="46.80,323.96 790.02,323.96" style="stroke-width: 0.29;stroke: #DEDEDE;stroke-linecap: butt;"/>
<polyline points="46.80,276.80 790.02,276.80" style="stroke-width: 0.29;stroke: #DEDEDE;stroke-linecap: butt;"/>
<polyline points="46.80,229.63 790.02,229.63" style="stroke-width: 0.29;stroke: #DEDEDE;stroke-linecap: butt;"/>
<polyline points="148.15,353.65 148.15,219.28" style="stroke-width: 0.29;stroke: #DEDEDE;stroke-linecap: butt;"/>
<polyline points="283.28,353.65 283.28,219.28" style="stroke-width: 0.29;stroke: #DEDEDE;stroke-linecap: butt;"/>
<polyline points="418.41,353.65 418.41,219.28" style="stroke-width: 0.29;stroke: #DEDEDE;stroke-linecap: butt;"/>
<polyline points="553.54,353.65 553.54,219.28" style="stroke-width: 0.29;stroke: #DEDEDE;stroke-linecap: butt;"/>
<polyline points="688.67,353.65 688.67,219.28" style="stroke-width: 0.29;stroke: #DEDEDE;stroke-linecap: butt;"/>
<polyline points="46.80,347.54 790.02,347.54" style="stroke-width: 0.58;stroke: #DEDEDE;stroke-linecap: butt;"/>
<polyline points="46.80,300.38 790.02,300.38" style="stroke-width: 0.58;stroke: #DEDEDE;stroke-linecap: butt;"/>
<polyline points="46.80,253.22 790.02,253.22" style="stroke-width: 0.58;stroke: #DEDEDE;stroke-linecap: butt;"/>
<polyline points="80.59,353.65 80.59,219.28" style="stroke-width: 0.58;stroke: #DEDEDE;stroke-linecap: butt;"/>
<polyline points="215.72,353.65 215.72,219.28" style="stroke-width: 0.58;stroke: #DEDEDE;stroke-linecap: butt;"/>
<polyline points="350.85,353.65 350.85,219.28" style="stroke-width: 0.58;stroke: #DEDEDE;stroke-linecap: butt;"/>
<polyline points="485.98,353.65 485.98,219.28" style="stroke-width: 0.58;stroke: #DEDEDE;stroke-linecap: butt;"/>
<polyline points="621.11,353.65 621.11,219.28" style="stroke-width: 0.58;stroke: #DEDEDE;stroke-linecap: butt;"/>
<polyline points="756.24,353.65 756.24,219.28" style="stroke-width: 0.58;stroke: #DEDEDE;stroke-linecap: butt;"/>
<rect x="519.76" y="219.28" width="135.13" height="134.37" style="stroke-width: 1.07;stroke: #BEBEBE;stroke-linecap: butt;stroke-linejoin: miter;fill: #D3D3D3;fill-opacity: 0.20;"/>
<rect x="519.76" y="219.28" width="135.13" height="134.37" style="stroke-width: 1.07;stroke: #BEBEBE;stroke-linecap: butt;stroke-linejoin: miter;fill: #D3D3D3;fill-opacity: 0.20;"/>
<rect x="519.76" y="219.28" width="135.13" height="134.37" style="stroke-width: 1.07;stroke: #BEBEBE;stroke-linecap: butt;stroke-linejoin: miter;fill: #D3D3D3;fill-opacity: 0.20;"/>
<rect x="519.76" y="219.28" width="135.13" height="134.37" style="stroke-width: 1.07;stroke: #BEBEBE;stroke-linecap: butt;stroke-linejoin: miter;fill: #D3D3D3;fill-opacity: 0.20;"/>
<rect x="519.76" y="219.28" width="135.13" height="134.37" style="stroke-width: 1.07;stroke: #BEBEBE;stroke-linecap: butt;stroke-linejoin: miter;fill: #D3D3D3;fill-opacity: 0.20;"/>
<rect x="519.76" y="219.28" width="135.13" height="134.37" style="stroke-width: 1.07;stroke: #BEBEBE;stroke-linecap: butt;stroke-linejoin: miter;fill: #D3D3D3;fill-opacity: 0.20;"/>
<rect x="519.76" y="219.28" width="135.13" height="134.37" style="stroke-width: 1.07;stroke: #BEBEBE;stroke-linecap: butt;stroke-linejoin: miter;fill: #D3D3D3;fill-opacity: 0.20;"/>
<rect x="519.76" y="219.28" width="135.13" height="134.37" style="stroke-width: 1.07;stroke: #BEBEBE;stroke-linecap: butt;stroke-linejoin: miter;fill: #D3D3D3;fill-opacity: 0.20;"/>
<rect x="519.76" y="219.28" width="135.13" height="134.37" style="stroke-width: 1.07;stroke: #BEBEBE;stroke-linecap: butt;stroke-linejoin: miter;fill: #D3D3D3;fill-opacity: 0.20;"/>
<rect x="519.76" y="219.28" width="135.13" height="134.37" style="stroke-width: 1.07;stroke: #BEBEBE;stroke-linecap: butt;stroke-linejoin: miter;fill: #D3D3D3;fill-opacity: 0.20;"/>
<rect x="519.76" y="219.28" width="135.13" height="134.37" style="stroke-width: 1.07;stroke: #BEBEBE;stroke-linecap: butt;stroke-linejoin: miter;fill: #D3D3D3;fill-opacity: 0.20;"/>
<polyline points="80.59,347.54 148.15,345.94 215.72,342.83 283.28,305.47 350.85,317.74 418.41,341.60 485.98,225.39 553.54,347.54 621.11,322.17 688.67,251.14 756.24,320.76" style="stroke-width: 1.07;stroke: #F8766D; stroke-dasharray: 5.69, 5.69;stroke-linecap: butt;"/>
<circle cx="80.59" cy="347.54" r="3.56" style="stroke-width: 0.71;stroke: #F8766D;fill: #F8766D;"/>
<circle cx="148.15" cy="345.94" r="3.56" style="stroke-width: 0.71;stroke: #F8766D;fill: #F8766D;"/>
<circle cx="215.72" cy="342.83" r="3.56" style="stroke-width: 0.71;stroke: #F8766D;fill: #F8766D;"/>
<circle cx="283.28" cy="305.47" r="3.56" style="stroke-width: 0.71;stroke: #F8766D;fill: #F8766D;"/>
<circle cx="350.85" cy="317.74" r="3.56" style="stroke-width: 0.71;stroke: #F8766D;fill: #F8766D;"/>
<circle cx="418.41" cy="341.60" r="3.56" style="stroke-width: 0.71;stroke: #F8766D;fill: #F8766D;"/>
<circle cx="485.98" cy="225.39" r="3.56" style="stroke-width: 0.71;stroke: #F8766D;fill: #F8766D;"/>
<circle cx="553.54" cy="347.54" r="3.56" style="stroke-width: 0.71;stroke: #F8766D;fill: #F8766D;"/>
<circle cx="621.11" cy="322.17" r="3.56" style="stroke-width: 0.71;stroke: #F8766D;fill: #F8766D;"/>
<circle cx="688.67" cy="251.14" r="3.56" style="stroke-width: 0.71;stroke: #F8766D;fill: #F8766D;"/>
<circle cx="756.24" cy="320.76" r="3.56" style="stroke-width: 0.71;stroke: #F8766D;fill: #F8766D;"/>
<rect x="46.80" y="219.28" width="743.22" height="134.37" style="stroke-width: 1.16;stroke: #B3B3B3;"/>
</g><g clip-path="url(#c8)">
<g><text x="41.42" y="350.98" text-anchor="end" style="font-family: Arial;font-size: 9.60px;fill: #4D4D4D;" textLength="5.34px" lengthAdjust="spacingAndGlyphs">0</text></g>
<g><text x="41.42" y="303.82" text-anchor="end" style="font-family: Arial;font-size: 9.60px;fill: #4D4D4D;" textLength="16.01px" lengthAdjust="spacingAndGlyphs">500</text></g>
<g><text x="41.42" y="256.65" text-anchor="end" style="font-family: Arial;font-size: 9.60px;fill: #4D4D4D;" textLength="21.34px" lengthAdjust="spacingAndGlyphs">1000</text></g>
<polyline points="43.82,347.54 46.80,347.54" style="stroke-width: 0.58;stroke: #B3B3B3;stroke-linecap: butt;"/>
<polyline points="43.82,300.38 46.80,300.38" style="stroke-width: 0.58;stroke: #B3B3B3;stroke-linecap: butt;"/>
<polyline points="43.82,253.22 46.80,253.22" style="stroke-width: 0.58;stroke: #B3B3B3;stroke-linecap: butt;"/>
<polyline points="80.59,356.64 80.59,353.65" style="stroke-width: 0.58;stroke: #B3B3B3;stroke-linecap: butt;"/>
<polyline points="215.72,356.64 215.72,353.65" style="stroke-width: 0.58;stroke: #B3B3B3;stroke-linecap: butt;"/>
<polyline points="350.85,356.64 350.85,353.65" style="stroke-width: 0.58;stroke: #B3B3B3;stroke-linecap: butt;"/>
<polyline points="485.98,356.64 485.98,353.65" style="stroke-width: 0.58;stroke: #B3B3B3;stroke-linecap: butt;"/>
<polyline points="621.11,356.64 621.11,353.65" style="stroke-width: 0.58;stroke: #B3B3B3;stroke-linecap: butt;"/>
<polyline points="756.24,356.64 756.24,353.65" style="stroke-width: 0.58;stroke: #B3B3B3;stroke-linecap: butt;"/>
<g><text x="80.59" y="365.90" text-anchor="middle" style="font-family: Arial;font-size: 9.60px;fill: #4D4D4D;" textLength="21.34px" lengthAdjust="spacingAndGlyphs">2010</text></g>
<g><text x="215.72" y="365.90" text-anchor="middle" style="font-family: Arial;font-size: 9.60px;fill: #4D4D4D;" textLength="21.34px" lengthAdjust="spacingAndGlyphs">2012</text></g>
<g><text x="350.85" y="365.90" text-anchor="middle" style="font-family: Arial;font-size: 9.60px;fill: #4D4D4D;" textLength="21.34px" lengthAdjust="spacingAndGlyphs">2014</text></g>
<g><text x="485.98" y="365.90" text-anchor="middle" style="font-family: Arial;font-size: 9.60px;fill: #4D4D4D;" textLength="21.34px" lengthAdjust="spacingAndGlyphs">2016</text></g>
<g><text x="621.11" y="365.90" text-anchor="middle" style="font-family: Arial;font-size: 9.60px;fill: #4D4D4D;" textLength="21.34px" lengthAdjust="spacingAndGlyphs">2018</text></g>
<g><text x="756.24" y="365.90" text-anchor="middle" style="font-family: Arial;font-size: 9.60px;fill: #4D4D4D;" textLength="21.34px" lengthAdjust="spacingAndGlyphs">2020</text></g>
<g><text x="418.41" y="379.50" text-anchor="middle" style="font-family: Arial;font-size: 12.00px;" textLength="56.02px" lengthAdjust="spacingAndGlyphs">Submit FY</text></g>
<g><text transform="translate(14.57,286.47) rotate(-90.00)" text-anchor="middle" style="font-family: Arial;font-size: 12.00px;" textLength="92.07px" lengthAdjust="spacingAndGlyphs">Rezonings [units]</text></g>
<g><text x="46.80" y="210.28" style="font-family: Arial;font-size: 14.40px;" textLength="140.77px" lengthAdjust="spacingAndGlyphs">Prince William County</text></g>
</g><g clip-path="url(#c9)">
<rect x="-0.00" y="388.00" width="796.00" height="194.00" style="stroke-width: 1.16;stroke: #FFFFFF;fill: #FFFFFF;"/>
</g><g clip-path="url(#c11)">
<rect x="46.80" y="413.28" width="743.22" height="134.37" style="stroke-width: 1.16;stroke: none;fill: #FFFFFF;"/>
<polyline points="46.80,522.80 790.02,522.80" style="stroke-width: 0.29;stroke: #DEDEDE;stroke-linecap: butt;"/>
<polyline points="46.80,485.32 790.02,485.32" style="stroke-width: 0.29;stroke: #DEDEDE;stroke-linecap: butt;"/>
<polyline points="46.80,447.84 790.02,447.84" style="stroke-width: 0.29;stroke: #DEDEDE;stroke-linecap: butt;"/>
<polyline points="148.15,547.65 148.15,413.28" style="stroke-width: 0.29;stroke: #DEDEDE;stroke-linecap: butt;"/>
<polyline points="283.28,547.65 283.28,413.28" style="stroke-width: 0.29;stroke: #DEDEDE;stroke-linecap: butt;"/>
<polyline points="418.41,547.65 418.41,413.28" style="stroke-width: 0.29;stroke: #DEDEDE;stroke-linecap: butt;"/>
<polyline points="553.54,547.65 553.54,413.28" style="stroke-width: 0.29;stroke: #DEDEDE;stroke-linecap: butt;"/>
<polyline points="688.67,547.65 688.67,413.28" style="stroke-width: 0.29;stroke: #DEDEDE;stroke-linecap: butt;"/>
<polyline points="46.80,541.54 790.02,541.54" style="stroke-width: 0.58;stroke: #DEDEDE;stroke-linecap: butt;"/>
<polyline points="46.80,504.06 790.02,504.06" style="stroke-width: 0.58;stroke: #DEDEDE;stroke-linecap: butt;"/>
<polyline points="46.80,466.58 790.02,466.58" style="stroke-width: 0.58;stroke: #DEDEDE;stroke-linecap: butt;"/>
<polyline points="46.80,429.10 790.02,429.10" style="stroke-width: 0.58;stroke: #DEDEDE;stroke-linecap: butt;"/>
<polyline points="80.59,547.65 80.59,413.28" style="stroke-width: 0.58;stroke: #DEDEDE;stroke-linecap: butt;"/>
<polyline points="215.72,547.65 215.72,413.28" style="stroke-width: 0.58;stroke: #DEDEDE;stroke-linecap: butt;"/>
<polyline points="350.85,547.65 350.85,413.28" style="stroke-width: 0.58;stroke: #DEDEDE;stroke-linecap: butt;"/>
<polyline points="485.98,547.65 485.98,413.28" style="stroke-width: 0.58;stroke: #DEDEDE;stroke-linecap: butt;"/>
<polyline points="621.11,547.65 621.11,413.28" style="stroke-width: 0.58;stroke: #DEDEDE;stroke-linecap: butt;"/>
<polyline points="756.24,547.65 756.24,413.28" style="stroke-width: 0.58;stroke: #DEDEDE;stroke-linecap: butt;"/>
<rect x="519.76" y="413.28" width="135.13" height="134.37" style="stroke-width: 1.07;stroke: #BEBEBE;stroke-linecap: butt;stroke-linejoin: miter;fill: #D3D3D3;fill-opacity: 0.20;"/>
<rect x="519.76" y="413.28" width="135.13" height="134.37" style="stroke-width: 1.07;stroke: #BEBEBE;stroke-linecap: butt;stroke-linejoin: miter;fill: #D3D3D3;fill-opacity: 0.20;"/>
<rect x="519.76" y="413.28" width="135.13" height="134.37" style="stroke-width: 1.07;stroke: #BEBEBE;stroke-linecap: butt;stroke-linejoin: miter;fill: #D3D3D3;fill-opacity: 0.20;"/>
<rect x="519.76" y="413.28" width="135.13" height="134.37" style="stroke-width: 1.07;stroke: #BEBEBE;stroke-linecap: butt;stroke-linejoin: miter;fill: #D3D3D3;fill-opacity: 0.20;"/>
<rect x="519.76" y="413.28" width="135.13" height="134.37" style="stroke-width: 1.07;stroke: #BEBEBE;stroke-linecap: butt;stroke-linejoin: miter;fill: #D3D3D3;fill-opacity: 0.20;"/>
<rect x="519.76" y="413.28" width="135.13" height="134.37" style="stroke-width: 1.07;stroke: #BEBEBE;stroke-linecap: butt;stroke-linejoin: miter;fill: #D3D3D3;fill-opacity: 0.20;"/>
<rect x="519.76" y="413.28" width="135.13" height="134.37" style="stroke-width: 1.07;stroke: #BEBEBE;stroke-linecap: butt;stroke-linejoin: miter;fill: #D3D3D3;fill-opacity: 0.20;"/>
<rect x="519.76" y="413.28" width="135.13" height="134.37" style="stroke-width: 1.07;stroke: #BEBEBE;stroke-linecap: butt;stroke-linejoin: miter;fill: #D3D3D3;fill-opacity: 0.20;"/>
<rect x="519.76" y="413.28" width="135.13" height="134.37" style="stroke-width: 1.07;stroke: #BEBEBE;stroke-linecap: butt;stroke-linejoin: miter;fill: #D3D3D3;fill-opacity: 0.20;"/>
<rect x="519.76" y="413.28" width="135.13" height="134.37" style="stroke-width: 1.07;stroke: #BEBEBE;stroke-linecap: butt;stroke-linejoin: miter;fill: #D3D3D3;fill-opacity: 0.20;"/>
<rect x="519.76" y="413.28" width="135.13" height="134.37" style="stroke-width: 1.07;stroke: #BEBEBE;stroke-linecap: butt;stroke-linejoin: miter;fill: #D3D3D3;fill-opacity: 0.20;"/>
<polyline points="80.59,541.54 148.15,541.54 215.72,419.39 283.28,506.27 350.85,512.91 418.41,536.90 485.98,485.58 553.54,541.54 621.11,505.71 688.67,456.91 756.24,493.38" style="stroke-width: 1.07;stroke: #F8766D; stroke-dasharray: 5.69, 5.69;stroke-linecap: butt;"/>
<circle cx="80.59" cy="541.54" r="3.56" style="stroke-width: 0.71;stroke: #F8766D;fill: #F8766D;"/>
<circle cx="148.15" cy="541.54" r="3.56" style="stroke-width: 0.71;stroke: #F8766D;fill: #F8766D;"/>
<circle cx="215.72" cy="419.39" r="3.56" style="stroke-width: 0.71;stroke: #F8766D;fill: #F8766D;"/>
<circle cx="283.28" cy="506.27" r="3.56" style="stroke-width: 0.71;stroke: #F8766D;fill: #F8766D;"/>
<circle cx="350.85" cy="512.91" r="3.56" style="stroke-width: 0.71;stroke: #F8766D;fill: #F8766D;"/>
<circle cx="418.41" cy="536.90" r="3.56" style="stroke-width: 0.71;stroke: #F8766D;fill: #F8766D;"/>
<circle cx="485.98" cy="485.58" r="3.56" style="stroke-width: 0.71;stroke: #F8766D;fill: #F8766D;"/>
<circle cx="553.54" cy="541.54" r="3.56" style="stroke-width: 0.71;stroke: #F8766D;fill: #F8766D;"/>
<circle cx="621.11" cy="505.71" r="3.56" style="stroke-width: 0.71;stroke: #F8766D;fill: #F8766D;"/>
<circle cx="688.67" cy="456.91" r="3.56" style="stroke-width: 0.71;stroke: #F8766D;fill: #F8766D;"/>
<circle cx="756.24" cy="493.38" r="3.56" style="stroke-width: 0.71;stroke: #F8766D;fill: #F8766D;"/>
<rect x="46.80" y="413.28" width="743.22" height="134.37" style="stroke-width: 1.16;stroke: #B3B3B3;"/>
</g><g clip-path="url(#c12)">
<g><text x="41.42" y="544.98" text-anchor="end" style="font-family: Arial;font-size: 9.60px;fill: #4D4D4D;" textLength="5.34px" lengthAdjust="spacingAndGlyphs">0</text></g>
<g><text x="41.42" y="507.50" text-anchor="end" style="font-family: Arial;font-size: 9.60px;fill: #4D4D4D;" textLength="21.34px" lengthAdjust="spacingAndGlyphs">1000</text></g>
<g><text x="41.42" y="470.01" text-anchor="end" style="font-family: Arial;font-size: 9.60px;fill: #4D4D4D;" textLength="21.34px" lengthAdjust="spacingAndGlyphs">2000</text></g>
<g><text x="41.42" y="432.53" text-anchor="end" style="font-family: Arial;font-size: 9.60px;fill: #4D4D4D;" textLength="21.34px" lengthAdjust="spacingAndGlyphs">3000</text></g>
<polyline points="43.82,541.54 46.80,541.54" style="stroke-width: 0.58;stroke: #B3B3B3;stroke-linecap: butt;"/>
<polyline points="43.82,504.06 46.80,504.06" style="stroke-width: 0.58;stroke: #B3B3B3;stroke-linecap: butt;"/>
<polyline points="43.82,466.58 46.80,466.58" style="stroke-width: 0.58;stroke: #B3B3B3;stroke-linecap: butt;"/>
<polyline points="43.82,429.10 46.80,429.10" style="stroke-width: 0.58;stroke: #B3B3B3;stroke-linecap: butt;"/>
<polyline points="80.59,550.64 80.59,547.65" style="stroke-width: 0.58;stroke: #B3B3B3;stroke-linecap: butt;"/>
<polyline points="215.72,550.64 215.72,547.65" style="stroke-width: 0.58;stroke: #B3B3B3;stroke-linecap: butt;"/>
<polyline points="350.85,550.64 350.85,547.65" style="stroke-width: 0.58;stroke: #B3B3B3;stroke-linecap: butt;"/>
<polyline points="485.98,550.64 485.98,547.65" style="stroke-width: 0.58;stroke: #B3B3B3;stroke-linecap: butt;"/>
<polyline points="621.11,550.64 621.11,547.65" style="stroke-width: 0.58;stroke: #B3B3B3;stroke-linecap: butt;"/>
<polyline points="756.24,550.64 756.24,547.65" style="stroke-width: 0.58;stroke: #B3B3B3;stroke-linecap: butt;"/>
<g><text x="80.59" y="559.90" text-anchor="middle" style="font-family: Arial;font-size: 9.60px;fill: #4D4D4D;" textLength="21.34px" lengthAdjust="spacingAndGlyphs">2010</text></g>
<g><text x="215.72" y="559.90" text-anchor="middle" style="font-family: Arial;font-size: 9.60px;fill: #4D4D4D;" textLength="21.34px" lengthAdjust="spacingAndGlyphs">2012</text></g>
<g><text x="350.85" y="559.90" text-anchor="middle" style="font-family: Arial;font-size: 9.60px;fill: #4D4D4D;" textLength="21.34px" lengthAdjust="spacingAndGlyphs">2014</text></g>
<g><text x="485.98" y="559.90" text-anchor="middle" style="font-family: Arial;font-size: 9.60px;fill: #4D4D4D;" textLength="21.34px" lengthAdjust="spacingAndGlyphs">2016</text></g>
<g><text x="621.11" y="559.90" text-anchor="middle" style="font-family: Arial;font-size: 9.60px;fill: #4D4D4D;" textLength="21.34px" lengthAdjust="spacingAndGlyphs">2018</text></g>
<g><text x="756.24" y="559.90" text-anchor="middle" style="font-family: Arial;font-size: 9.60px;fill: #4D4D4D;" textLength="21.34px" lengthAdjust="spacingAndGlyphs">2020</text></g>
<g><text x="418.41" y="573.50" text-anchor="middle" style="font-family: Arial;font-size: 12.00px;" textLength="56.02px" lengthAdjust="spacingAndGlyphs">Submit FY</text></g>
<g><text transform="translate(14.57,480.47) rotate(-90.00)" text-anchor="middle" style="font-family: Arial;font-size: 12.00px;" textLength="92.07px" lengthAdjust="spacingAndGlyphs">Rezonings [units]</text></g>
<g><text x="46.80" y="404.28" style="font-family: Arial;font-size: 14.40px;" textLength="105.65px" lengthAdjust="spacingAndGlyphs">Loudoun County</text></g>
</g>
</svg>